<svg xmlns="http://www.w3.org/2000/svg" viewBox="0 0 257 64" role="img" aria-label="HusHub Uppdrag"><path d="M12 10 V36 C12 47 19 54 30 54 H34 C45 54 52 47 52 36 V26" fill="none" stroke="#252A2D" stroke-width="7" stroke-linecap="square"/><path d="M48 6 H56 V14 H48 Z" fill="#F2D76A"/><g fill="#252A2D" transform="translate(78 47) scale(0.021 -0.021)"><path d="M720 -30Q548 -30 417.5 40.0Q287 110 213.5 237.0Q140 364 140 535V1438L384 1440V541Q384 460 411.5 396.0Q439 332 486.0 287.5Q533 243 594.0 220.0Q655 197 720 197Q787 197 847.5 220.5Q908 244 955.0 288.5Q1002 333 1029.0 397.0Q1056 461 1056 541V1440H1300V535Q1300 364 1226.5 237.0Q1153 110 1022.5 40.0Q892 -30 720 -30Z" transform="translate(0 0)"/><path d="M659 -30Q501 -30 394.0 45.0Q287 120 233.0 249.5Q179 379 179 540Q179 703 233.0 832.0Q287 961 391.5 1035.5Q496 1110 650 1110Q803 1110 915.5 1035.5Q1028 961 1090.0 832.5Q1152 704 1152 540Q1152 378 1091.0 249.0Q1030 120 919.0 45.0Q808 -30 659 -30ZM138 -480V1080H351V322H381V-480ZM622 186Q716 186 777.0 233.0Q838 280 867.5 360.5Q897 441 897 540Q897 638 867.0 718.5Q837 799 774.0 846.5Q711 894 614 894Q522 894 464.0 849.5Q406 805 378.5 725.5Q351 646 351 540Q351 435 378.5 355.0Q406 275 465.5 230.5Q525 186 622 186Z" transform="translate(1440 0)"/><path d="M659 -30Q501 -30 394.0 45.0Q287 120 233.0 249.5Q179 379 179 540Q179 703 233.0 832.0Q287 961 391.5 1035.5Q496 1110 650 1110Q803 1110 915.5 1035.5Q1028 961 1090.0 832.5Q1152 704 1152 540Q1152 378 1091.0 249.0Q1030 120 919.0 45.0Q808 -30 659 -30ZM138 -480V1080H351V322H381V-480ZM622 186Q716 186 777.0 233.0Q838 280 867.5 360.5Q897 441 897 540Q897 638 867.0 718.5Q837 799 774.0 846.5Q711 894 614 894Q522 894 464.0 849.5Q406 805 378.5 725.5Q351 646 351 540Q351 435 378.5 355.0Q406 275 465.5 230.5Q525 186 622 186Z" transform="translate(2672 0)"/><path d="M573 -30Q424 -30 313.0 45.0Q202 120 141.0 249.0Q80 378 80 540Q80 704 141.5 832.5Q203 961 316.0 1035.5Q429 1110 582 1110Q736 1110 840.5 1035.5Q945 961 999.0 832.0Q1053 703 1053 540Q1053 379 999.0 249.5Q945 120 838.0 45.0Q731 -30 573 -30ZM610 186Q707 186 766.5 230.5Q826 275 853.5 355.0Q881 435 881 540Q881 646 853.5 725.5Q826 805 768.0 849.5Q710 894 618 894Q521 894 458.0 846.5Q395 799 365.0 718.5Q335 638 335 540Q335 441 364.5 360.5Q394 280 455.0 233.0Q516 186 610 186ZM881 0V758H851V1440H1094V0Z" transform="translate(3904 0)"/><path d="M140 0V1080H353V817L327 851Q347 905 380.5 949.5Q414 994 461 1023Q501 1050 549.5 1065.5Q598 1081 649.0 1084.5Q700 1088 748 1080V855Q700 869 637.5 864.0Q575 859 525 829Q475 802 443.5 760.0Q412 718 397.0 664.5Q382 611 382 549V0Z" transform="translate(5138 0)"/><path d="M442 -30Q325 -30 244.0 14.5Q163 59 121.5 133.0Q80 207 80 296Q80 374 106.0 436.5Q132 499 186.0 544.5Q240 590 326 619Q391 640 478.5 657.0Q566 674 668.5 688.5Q771 703 883 720L797 671Q798 783 747.0 836.0Q696 889 575 889Q502 889 434.0 855.0Q366 821 339 738L119 807Q159 944 271.5 1027.0Q384 1110 575 1110Q719 1110 828.5 1063.0Q938 1016 991 909Q1020 852 1026.0 792.5Q1032 733 1032 663V0H821V234L856 196Q783 79 685.5 24.5Q588 -30 442 -30ZM490 162Q572 162 630.0 191.0Q688 220 722.5 262.0Q757 304 769 341Q788 387 790.5 446.5Q793 506 793 543L867 521Q758 504 680.0 491.0Q602 478 546.0 466.5Q490 455 447 441Q405 426 376.0 406.0Q347 386 331.5 360.0Q316 334 316 299Q316 259 336.0 228.5Q356 198 394.5 180.0Q433 162 490 162Z" transform="translate(5936 0)"/><path d="M594 -510Q504 -510 421.5 -482.0Q339 -454 273.0 -401.5Q207 -349 165 -275L387 -165Q418 -224 474.5 -252.5Q531 -281 595 -281Q670 -281 729.0 -254.5Q788 -228 820.5 -176.5Q853 -125 851 -48V259H881V1080H1092V-52Q1092 -93 1088.5 -130.5Q1085 -168 1077 -204Q1053 -309 985.0 -376.5Q917 -444 816.5 -477.0Q716 -510 594 -510ZM573 -30Q424 -30 313.0 45.0Q202 120 141.0 249.0Q80 378 80 540Q80 704 141.5 832.5Q203 961 316.0 1035.5Q429 1110 582 1110Q736 1110 840.5 1035.5Q945 961 999.0 832.0Q1053 703 1053 540Q1053 379 999.0 249.5Q945 120 838.0 45.0Q731 -30 573 -30ZM610 186Q707 186 766.5 230.5Q826 275 853.5 355.0Q881 435 881 540Q881 646 853.5 725.5Q826 805 768.0 849.5Q710 894 618 894Q521 894 458.0 846.5Q395 799 365.0 718.5Q335 638 335 540Q335 441 364.5 360.5Q394 280 455.0 233.0Q516 186 610 186Z" transform="translate(7088 0)"/></g></svg>