<svg xmlns="http://www.w3.org/2000/svg" viewBox="0 0 267 64" role="img" aria-label="RenoApp"><path d="M6 23 L30 4 L54 23 V57 H6 Z" fill="none" stroke="#293239" stroke-width="4.5" stroke-linejoin="round"/><path d="M17 35 L26 44 L44 26" fill="none" stroke="#293239" stroke-width="4.5" stroke-linecap="round" stroke-linejoin="round"/><g fill="#293239" transform="translate(76 46) scale(0.021 -0.021)"><path d="M140 0V1440H735Q756 1440 789.0 1438.5Q822 1437 850 1432Q975 1413 1056.5 1349.0Q1138 1285 1177.5 1187.5Q1217 1090 1217 971Q1217 795 1128.0 668.5Q1039 542 855 512L752 503H381V0ZM967 0 683 586 928 640 1240 0ZM381 728H725Q745 728 770.0 730.0Q795 732 816 738Q876 753 910.5 791.0Q945 829 959.5 877.0Q974 925 974 971Q974 1017 959.5 1065.5Q945 1114 910.5 1152.0Q876 1190 816 1205Q795 1211 770.0 1212.5Q745 1214 725 1214H381Z" transform="translate(0 0)"/><path d="M631 -30Q467 -30 343.0 41.0Q219 112 149.5 238.0Q80 364 80 528Q80 705 148.0 835.5Q216 966 337.0 1038.0Q458 1110 617 1110Q785 1110 902.5 1031.5Q1020 953 1077.0 810.0Q1134 667 1120 473H881V561Q880 737 819.0 818.0Q758 899 627 899Q479 899 407.0 807.5Q335 716 335 540Q335 376 407.0 286.0Q479 196 617 196Q706 196 770.5 235.5Q835 275 870 350L1108 278Q1046 132 916.5 51.0Q787 -30 631 -30ZM259 473V655H1002V473Z" transform="translate(1320 0)"/><path d="M887 0V520Q887 571 880.0 633.0Q873 695 847.5 752.5Q822 810 771.5 847.0Q721 884 635 884Q589 884 544.0 869.0Q499 854 462.5 817.5Q426 781 404.0 717.5Q382 654 382 555L239 616Q239 754 292.5 866.0Q346 978 450.0 1044.5Q554 1111 706 1111Q826 1111 904.0 1071.0Q982 1031 1028.0 969.0Q1074 907 1096.0 837.0Q1118 767 1124.5 704.5Q1131 642 1131 603V0ZM138 0V1080H353V745H382V0Z" transform="translate(2524 0)"/><path d="M617 -30Q455 -30 334.0 43.0Q213 116 146.5 244.5Q80 373 80 540Q80 710 148.0 838.0Q216 966 337.0 1038.0Q458 1110 617 1110Q780 1110 901.0 1037.0Q1022 964 1089.0 835.5Q1156 707 1156 540Q1156 372 1088.5 243.5Q1021 115 900.0 42.5Q779 -30 617 -30ZM617 196Q761 196 831.0 292.0Q901 388 901 540Q901 697 830.0 790.5Q759 884 617 884Q520 884 457.5 840.5Q395 797 365.0 719.5Q335 642 335 540Q335 383 406.5 289.5Q478 196 617 196Z" transform="translate(3775 0)"/><path d="M40 0 494 1440H847L1301 0H1053L641 1292H695L288 0ZM293 312V537H1049V312Z" transform="translate(5011 0)"/><path d="M659 -30Q501 -30 394.0 45.0Q287 120 233.0 249.5Q179 379 179 540Q179 703 233.0 832.0Q287 961 391.5 1035.5Q496 1110 650 1110Q803 1110 915.5 1035.5Q1028 961 1090.0 832.5Q1152 704 1152 540Q1152 378 1091.0 249.0Q1030 120 919.0 45.0Q808 -30 659 -30ZM138 -480V1080H351V322H381V-480ZM622 186Q716 186 777.0 233.0Q838 280 867.5 360.5Q897 441 897 540Q897 638 867.0 718.5Q837 799 774.0 846.5Q711 894 614 894Q522 894 464.0 849.5Q406 805 378.5 725.5Q351 646 351 540Q351 435 378.5 355.0Q406 275 465.5 230.5Q525 186 622 186Z" transform="translate(6352 0)"/><path d="M659 -30Q501 -30 394.0 45.0Q287 120 233.0 249.5Q179 379 179 540Q179 703 233.0 832.0Q287 961 391.5 1035.5Q496 1110 650 1110Q803 1110 915.5 1035.5Q1028 961 1090.0 832.5Q1152 704 1152 540Q1152 378 1091.0 249.0Q1030 120 919.0 45.0Q808 -30 659 -30ZM138 -480V1080H351V322H381V-480ZM622 186Q716 186 777.0 233.0Q838 280 867.5 360.5Q897 441 897 540Q897 638 867.0 718.5Q837 799 774.0 846.5Q711 894 614 894Q522 894 464.0 849.5Q406 805 378.5 725.5Q351 646 351 540Q351 435 378.5 355.0Q406 275 465.5 230.5Q525 186 622 186Z" transform="translate(7584 0)"/></g></svg>